<?xml version="1.0" encoding="UTF-8"?>
<svg id="Layer_1" data-name="Layer 1" xmlns="http://www.w3.org/2000/svg" version="1.1" viewBox="0 0 745.15 161.98">
  <defs>
    <style>
      .cls-1 {
        fill: #fecf04;
      }

      .cls-1, .cls-2 {
        stroke-width: 0px;
      }

      .cls-2 {
        fill: #fff;
      }
    </style>
  </defs>
  <g>
    <path class="cls-1" d="M172.72,149.28c-1.28-1.28-2.3-2.82-3.01-4.54-.67-1.59-1.05-3.4-1.05-5.28v-41.19c0-8.59-3.53-16.41-9.18-22.07-5.49-5.49-13.02-8.96-21.33-9.16-.25-.02-.5-.02-.74-.02h-37.43v-9.46h-.04v-18.48c0-4.11-3.33-7.44-7.44-7.44h-39.4V14.9h53.79c4.5,0,8.57,1.84,11.55,4.8,2.98,2.98,4.82,7.07,4.82,11.55v30.54h14.9v-30.53c0-8.61-3.53-16.44-9.18-22.09-5.67-5.67-13.48-9.18-22.09-9.18h-61.23c-4.13,0-7.46,3.33-7.46,7.46v25.58c-9.04,2.21-17.13,6.89-23.53,13.27C5.62,55.36,0,67.87,0,81.62v72.92c0,4.11,3.33,7.44,7.46,7.44s7.44-3.33,7.44-7.44v-24.18h30.37c.12,0,.25.02.39.02h61.23c8.61,0,16.42-3.53,22.09-9.18,5.67-5.67,9.18-13.48,9.18-22.09v-17.17c4.2.19,7.99,1.98,10.81,4.8,2.96,2.96,4.8,7.05,4.8,11.53v41.19c0,3.86.8,7.58,2.21,10.98,1.45,3.51,3.61,6.68,6.27,9.35,2.91,2.89,7.62,2.87,10.51-.04,2.89-2.91,2.87-7.6-.04-10.49ZM85.06,115.46h-31.96V51.04h-3.12c-4.13,0-8.1.69-11.78,1.93v62.49H14.9v-33.84c0-9.66,3.95-18.43,10.31-24.79,3.63-3.63,8.06-6.48,12.99-8.24,3.68-1.33,7.65-2.05,11.78-2.05h35.08v68.92ZM123.25,99.11c0,4.5-1.84,8.57-4.82,11.55-2.98,2.98-7.05,4.8-11.55,4.8h-6.89v-33.54h23.26v17.18Z"/>
    <path class="cls-1" d="M104.03,160.04c-2.89,2.56-7.59,2.58-10.5.03-2.67-2.36-4.82-5.15-6.28-8.24-1.42-3.01-2.21-6.28-2.21-9.69v-8.02h14.9v8.02c0,1.66.37,3.24,1.04,4.66.71,1.51,1.75,2.86,3.02,3.99,2.91,2.55,2.92,6.69.03,9.25Z"/>
  </g>
  <g>
    <g>
      <path class="cls-2" d="M211.5,108.45c0,3.57-2.89,6.47-6.47,6.47s-6.46-2.89-6.46-6.47v-63.29c0-11.93,4.88-22.77,12.74-30.64,7.86-7.86,18.7-12.73,30.63-12.73h36.9c3.57,0,6.46,2.89,6.46,6.46v87.12c0,1.64.32,3.19.9,4.59.62,1.49,1.51,2.82,2.62,3.92,2.52,2.51,2.54,6.59.03,9.11-2.51,2.52-6.59,2.54-9.11.03-2.32-2.32-4.18-5.07-5.45-8.11-1.23-2.96-1.91-6.19-1.91-9.54V14.72h-30.45c-8.37,0-15.97,3.43-21.49,8.95-5.52,5.52-8.95,13.13-8.95,21.49v29.37h37.83c3.57,0,6.47,2.89,6.47,6.47s-2.89,6.46-6.47,6.46h-37.83v20.99Z"/>
      <path class="cls-2" d="M312.44,32.5h36.94c7.47,0,14.25,3.05,19.17,7.97,4.91,4.91,7.96,11.7,7.96,19.17v28.16c0,7.47-3.05,14.25-7.96,19.17-4.91,4.91-11.7,7.96-19.17,7.96h-43.41c-3.57,0-6.46-2.89-6.46-6.47V21.33c0-1.64-.32-3.19-.9-4.59-.62-1.49-1.51-2.82-2.62-3.92-2.52-2.51-2.54-6.59-.03-9.11,2.51-2.52,6.59-2.54,9.11-.03,2.32,2.32,4.18,5.07,5.45,8.11,1.24,2.96,1.92,6.19,1.92,9.54v11.17ZM312.44,45.42v56.55h36.94c3.9,0,7.45-1.6,10.02-4.18,2.58-2.58,4.17-6.12,4.17-10.02v-28.16c0-3.9-1.6-7.45-4.17-10.02-2.58-2.58-6.12-4.17-10.02-4.17h-36.94Z"/>
      <path class="cls-2" d="M399.39,21.33v11.17h32.48c7.47,0,14.25,3.05,19.16,7.97,4.91,4.91,7.97,11.7,7.97,19.16v35.74c0,1.64.32,3.19.9,4.59.62,1.49,1.51,2.82,2.62,3.92,2.52,2.51,2.54,6.59.03,9.11-2.51,2.52-6.59,2.54-9.11.03-2.32-2.32-4.18-5.07-5.45-8.11-1.23-2.96-1.91-6.19-1.91-9.54v-35.74c0-3.89-1.6-7.45-4.17-10.02-2.58-2.58-6.12-4.18-10.02-4.18h-32.48v63.02c0,3.57-2.89,6.46-6.47,6.46s-6.46-2.89-6.46-6.46V21.33c0-1.64-.32-3.19-.9-4.59-.62-1.49-1.51-2.82-2.62-3.92-2.52-2.51-2.54-6.59-.03-9.11,2.51-2.52,6.59-2.54,9.11-.03,2.32,2.32,4.18,5.07,5.45,8.11,1.23,2.96,1.91,6.19,1.91,9.54Z"/>
      <path class="cls-2" d="M477.05,12.62c3.57,0,6.46,3.17,6.46,7.1s-2.89,7.1-6.46,7.1-6.47-3.17-6.47-7.1,2.9-7.1,6.47-7.1ZM470.58,38.96c0-3.57,2.89-6.46,6.47-6.46s6.46,2.89,6.46,6.46v56.4c0,1.64.32,3.19.9,4.59.62,1.48,1.51,2.82,2.62,3.92,2.52,2.51,2.54,6.59.03,9.11-2.51,2.52-6.59,2.54-9.11.03-2.32-2.32-4.18-5.07-5.45-8.11-1.23-2.96-1.91-6.19-1.91-9.54v-56.4h0Z"/>
      <path class="cls-2" d="M560.07,95.36v-35.74c0-3.89-1.6-7.45-4.18-10.02-2.58-2.58-6.12-4.18-10.02-4.18h-19.47c-3.9,0-7.45,1.6-10.02,4.18-2.58,2.58-4.17,6.12-4.17,10.02v48.83c0,3.57-2.89,6.46-6.47,6.46s-6.46-2.89-6.46-6.46v-55.74c0-.11,0-.22,0-.34,0-.11,0-.22,0-.34,0-1.64-.32-3.19-.91-4.59-.62-1.48-1.51-2.82-2.62-3.92-2.52-2.51-2.54-6.59-.03-9.12,2.51-2.52,6.59-2.54,9.11-.03,1.44,1.44,2.71,3.05,3.76,4.79,4.77-4.16,11-6.69,17.79-6.69h19.47c7.47,0,14.25,3.05,19.16,7.96,4.91,4.91,7.96,11.7,7.96,19.16v35.74c0,1.64.32,3.19.9,4.59.62,1.49,1.51,2.82,2.62,3.92,2.52,2.51,2.54,6.59.03,9.11-2.51,2.52-6.59,2.54-9.11.03-2.32-2.32-4.18-5.07-5.45-8.11-1.23-2.95-1.91-6.17-1.91-9.53Z"/>
      <path class="cls-2" d="M638.87,32.49c6.88,0,13.12,2.81,17.65,7.33,4.53,4.53,7.33,10.78,7.33,17.65v32.45c0,6.88-2.81,13.12-7.33,17.65s-10.77,7.33-17.65,7.33h-30.01c-6.88,0-13.12-2.81-17.65-7.33-4.53-4.52-7.33-10.76-7.33-17.64s2.81-13.12,7.33-17.65c4.53-4.53,10.78-7.33,17.65-7.33h32.34c2.23,0,4.3-.6,6.07-1.65,1.43-.84,2.67-1.96,3.64-3.28v-2.54c0-3.31-1.36-6.32-3.54-8.51-2.19-2.19-5.2-3.55-8.51-3.55h-33.83c-1.93,0-3.73.44-5.32,1.23-1.67.83-3.12,2.03-4.25,3.5-2.16,2.84-6.21,3.38-9.04,1.22-2.83-2.16-3.38-6.21-1.21-9.04,2.33-3.03,5.34-5.53,8.8-7.24,3.35-1.65,7.1-2.59,11.03-2.59h33.83ZM608.86,77.88c-3.31,0-6.32,1.36-8.5,3.54-2.19,2.19-3.55,5.2-3.55,8.5s1.36,6.32,3.55,8.51c2.19,2.19,5.2,3.54,8.5,3.54h30.01c3.31,0,6.32-1.36,8.51-3.54,2.19-2.19,3.54-5.2,3.54-8.51v-14.04c-3,1.27-6.28,1.99-9.72,1.99h-32.34Z"/>
      <path class="cls-2" d="M668.2,41.66c-1.49-3.24-.08-7.07,3.16-8.56,3.24-1.49,7.07-.08,8.56,3.16l26.46,56.89,26.46-56.89c1.49-3.24,5.32-4.65,8.56-3.16,3.24,1.49,4.65,5.33,3.16,8.56l-32.32,69.49c-2.35,4.99-9.37,4.99-11.72,0l-32.31-69.49Z"/>
    </g>
    <g>
      <path class="cls-2" d="M301.12,159.89v-21.34h9.33c2.32,0,4.35.45,6.1,1.34,1.75.89,3.11,2.13,4.08,3.72.97,1.58,1.46,3.46,1.46,5.61s-.49,4-1.46,5.59c-.98,1.6-2.34,2.84-4.08,3.73-1.75.89-3.78,1.34-6.1,1.34h-9.33ZM305.08,156.54h5.18c1.61,0,2.99-.3,4.16-.92,1.17-.61,2.07-1.46,2.71-2.56.64-1.1.96-2.38.96-3.84s-.32-2.77-.96-3.86c-.64-1.09-1.54-1.94-2.71-2.55-1.17-.61-2.56-.92-4.16-.92h-5.18v14.63Z"/>
      <path class="cls-2" d="M346.11,156.57h12.04v3.32h-16v-21.34h15.58v3.32h-11.61v14.69ZM345.8,147.42h10.61v3.26h-10.61v-3.26Z"/>
      <path class="cls-2" d="M385.03,160.2c-1.67,0-3.26-.24-4.79-.72-1.52-.48-2.73-1.09-3.63-1.84l1.37-3.08c.85.67,1.91,1.23,3.17,1.68,1.26.45,2.55.67,3.87.67,1.12,0,2.02-.12,2.71-.37.69-.24,1.2-.57,1.52-.99.33-.42.49-.89.49-1.42,0-.65-.23-1.17-.7-1.57-.47-.4-1.07-.71-1.81-.94-.74-.23-1.56-.45-2.47-.66-.9-.2-1.81-.44-2.71-.72-.9-.28-1.73-.63-2.47-1.07-.74-.44-1.35-1.02-1.81-1.75-.47-.73-.7-1.67-.7-2.8s.31-2.22.93-3.19c.62-.96,1.57-1.74,2.84-2.32,1.27-.58,2.88-.87,4.83-.87,1.28,0,2.55.16,3.81.49,1.26.33,2.36.79,3.29,1.4l-1.25,3.08c-.96-.57-1.94-.99-2.96-1.26-1.02-.28-1.99-.41-2.93-.41-1.1,0-1.99.13-2.67.4-.68.26-1.18.61-1.49,1.04-.32.43-.47.92-.47,1.46,0,.65.23,1.17.69,1.57s1.06.71,1.8.93c.74.22,1.57.44,2.48.66.92.21,1.82.45,2.73.72.9.26,1.73.61,2.47,1.04.74.43,1.34,1.01,1.8,1.74.46.73.69,1.66.69,2.78s-.31,2.19-.93,3.15c-.62.97-1.57,1.74-2.85,2.32s-2.89.87-4.85.87Z"/>
      <path class="cls-2" d="M413.44,159.89v-21.34h3.96v21.34h-3.96Z"/>
      <path class="cls-2" d="M448.98,160.2c-1.67,0-3.2-.27-4.59-.81-1.39-.54-2.61-1.3-3.64-2.29-1.04-.99-1.84-2.15-2.41-3.49-.57-1.34-.85-2.8-.85-4.39s.29-3.05.85-4.39c.57-1.34,1.38-2.51,2.42-3.49,1.05-.98,2.27-1.75,3.67-2.29,1.4-.54,2.94-.81,4.6-.81,1.81,0,3.44.3,4.89.88,1.45.59,2.68,1.45,3.67,2.59l-2.5,2.44c-.83-.83-1.73-1.45-2.7-1.84s-2.03-.59-3.19-.59-2.15.18-3.11.55c-.96.37-1.78.88-2.47,1.55-.69.67-1.22,1.46-1.6,2.38-.38.91-.56,1.92-.56,3.02s.19,2.07.56,2.99c.38.92.91,1.71,1.6,2.39.69.68,1.5,1.2,2.44,1.57.94.37,1.97.55,3.11.55,1.06,0,2.08-.17,3.06-.5.99-.34,1.93-.9,2.82-1.69l2.25,2.96c-1.12.89-2.41,1.57-3.89,2.03-1.47.46-2.96.69-4.47.69ZM453.58,156.96v-7.99h3.75v8.5l-3.75-.52Z"/>
      <path class="cls-2" d="M478.4,159.89v-21.34h3.26l13.38,16.43h-1.61v-16.43h3.93v21.34h-3.26l-13.38-16.43h1.62v16.43h-3.93Z"/>
      <path class="cls-2" d="M547.16,159.89h-3.96v-21.34h3.96v21.34ZM558.5,150.75h-11.67v-3.38h11.67v3.38ZM558.2,138.55h3.96v21.34h-3.96v-21.34Z"/>
      <path class="cls-2" d="M592.91,160.2c-2.93,0-5.22-.82-6.87-2.47-1.66-1.65-2.48-4.02-2.48-7.13v-12.04h3.96v11.89c0,2.2.47,3.79,1.42,4.79.94,1,2.28,1.49,4.01,1.49s3.06-.5,3.99-1.49c.93-.99,1.4-2.59,1.4-4.79v-11.89h3.9v12.04c0,3.11-.83,5.49-2.48,7.13s-3.94,2.47-6.84,2.47Z"/>
      <path class="cls-2" d="M623.64,159.89v-21.34h10c2.56,0,4.51.5,5.85,1.51,1.34,1.01,2.01,2.35,2.01,4.04,0,1.14-.26,2.11-.79,2.91-.53.8-1.23,1.42-2.12,1.86-.88.44-1.84.66-2.88.66l.55-1.1c1.2,0,2.28.22,3.23.65.96.44,1.71,1.07,2.27,1.91.56.83.84,1.87.84,3.11,0,1.83-.7,3.25-2.1,4.27-1.4,1.02-3.49,1.52-6.25,1.52h-10.61ZM627.6,156.78h6.4c1.48,0,2.62-.24,3.41-.73.79-.49,1.19-1.27,1.19-2.35s-.4-1.83-1.19-2.33c-.79-.5-1.93-.75-3.41-.75h-6.71v-3.08h5.91c1.38,0,2.44-.24,3.19-.73.74-.49,1.11-1.22,1.11-2.2s-.37-1.74-1.11-2.22-1.8-.73-3.19-.73h-5.61v15.12Z"/>
    </g>
  </g>
</svg>